<svg version="1.1" id="Layer_1" xmlns="http://www.w3.org/2000/svg" xmlns:xlink="http://www.w3.org/1999/xlink" x="0px" y="0px"
	 width="100%" viewBox="0 0 1024 1024" enable-background="new 0 0 1024 1024" xml:space="preserve">
<path fill="#000000" opacity="1.000000" stroke="none" 
	d="
M297.256073,707.527344 
	C290.476440,681.419189 290.117828,655.887512 299.726288,630.709778 
	C301.407043,626.305420 303.822388,622.285889 307.247742,619.026917 
	C310.960175,615.494690 311.922913,611.181458 311.725403,606.299561 
	C311.566711,602.376709 309.986572,601.652405 306.648376,603.437073 
	C295.844116,609.213379 284.348358,612.987793 272.323822,615.275818 
	C246.565857,620.177185 222.048096,616.093262 198.407837,605.318481 
	C196.166306,604.296875 194.109299,602.744507 191.545746,602.580444 
	C188.215973,607.217041 188.226517,613.091980 191.988968,617.141418 
	C203.270493,629.283447 206.641220,644.244995 208.387848,660.101135 
	C210.339035,677.814514 208.571777,694.916321 202.460083,711.620422 
	C200.955734,715.731995 198.848816,719.481384 196.210968,722.949768 
	C188.465240,733.134277 175.159851,733.479675 167.088882,723.538391 
	C161.063522,716.116638 158.058014,707.331970 156.315826,698.039368 
	C152.037262,675.218262 152.417313,652.712036 160.728180,630.722412 
	C161.850800,627.752075 162.844711,624.488342 165.153015,622.390137 
	C172.804504,615.435303 172.543915,605.710083 174.713150,596.816833 
	C175.594879,593.201965 173.281433,591.370117 170.847321,589.444458 
	C146.541031,570.214905 130.717621,545.567261 124.519882,515.149414 
	C116.716827,476.852722 125.522591,442.568207 150.713882,412.637451 
	C153.634140,409.167755 154.620743,406.377930 152.993240,401.592224 
	C136.924652,354.342102 160.427841,302.971436 206.433701,283.380157 
	C218.452332,278.262115 230.827087,275.844269 243.776306,275.668427 
	C246.832489,275.626923 249.742874,276.312164 252.573380,277.232849 
	C254.577118,277.884583 255.918930,279.560303 255.962540,281.755249 
	C256.005005,283.892426 254.391602,285.071503 252.606064,285.648712 
	C249.607010,286.618286 246.531082,287.360992 243.467529,288.118439 
	C213.008148,295.649170 191.984070,320.276947 189.141510,351.597961 
	C186.922211,376.051514 193.406479,397.509003 211.428894,414.626251 
	C223.098587,425.709808 237.247223,432.013672 253.365494,433.765106 
	C283.189392,437.005859 306.345154,424.861694 325.261749,402.819580 
	C326.129272,401.808746 326.923187,400.732483 327.821228,399.750549 
	C331.447266,395.785797 333.508698,395.616180 337.505402,399.212463 
	C345.473999,406.382782 352.375366,414.495911 358.249115,423.455597 
	C372.970703,445.911530 379.562103,470.751312 378.110107,497.382751 
	C376.296448,530.648010 362.311340,558.536499 338.327240,581.506592 
	C336.402435,583.349976 334.678436,585.548218 332.447906,586.899536 
	C326.221771,590.671509 325.183197,595.831055 327.419373,602.276917 
	C327.954926,603.820740 328.143768,605.514771 328.290680,607.157776 
	C328.742432,612.210266 330.154846,616.463196 333.909485,620.476685 
	C341.312653,628.390442 344.160217,638.815491 345.876740,649.143066 
	C348.838989,666.965881 348.892395,684.898010 344.106964,702.531250 
	C342.047852,710.118469 339.223480,717.429565 333.926422,723.476685 
	C325.217590,733.418823 313.026886,732.988953 304.895294,722.511902 
	C301.474182,718.104004 299.383667,713.031677 297.256073,707.527344 
M342.948181,425.526550 
	C340.108948,421.721130 337.846619,417.387573 333.623749,414.926849 
	C331.574066,415.828613 330.626678,417.444885 329.626099,418.951630 
	C321.294495,431.498230 310.793304,441.825867 297.928864,449.655487 
	C275.731323,463.165497 251.629318,468.300171 226.075058,463.834686 
	C201.457489,459.532928 181.592407,446.636536 166.090378,427.053986 
	C161.251663,420.941650 160.482178,420.888275 156.176559,427.120514 
	C139.093811,451.847229 132.451050,479.285706 137.664169,508.744476 
	C143.796051,543.395081 162.447540,570.036499 192.909088,588.163574 
	C195.997711,590.001526 198.357544,589.690308 201.110107,587.734619 
	C214.782333,578.020630 224.716171,565.199524 231.552002,550.091980 
	C239.858292,531.734619 241.840958,512.012939 242.721558,492.153076 
	C242.854263,489.160126 242.596466,486.143066 243.987808,483.335449 
	C245.113678,481.063538 246.722641,479.592529 249.446899,479.767670 
	C252.227371,479.946442 254.199631,481.253296 255.077225,483.926208 
	C256.128235,487.127228 256.344452,490.445496 256.265167,493.799683 
	C256.024170,503.994415 257.303925,514.037964 259.422913,523.983582 
	C264.595734,548.262756 276.253998,568.709717 295.517303,584.585693 
	C303.059113,590.801392 304.512695,590.968628 311.655151,586.018005 
	C365.876068,548.436157 380.091187,480.727631 342.948181,425.526550 
M227.651947,579.122742 
	C222.108963,585.021240 215.823730,590.111633 209.374634,595.246033 
	C228.946869,606.694824 274.122040,607.245728 290.929138,595.295349 
	C270.968658,582.253967 259.876953,562.598694 250.072220,541.612427 
	C243.962646,554.992676 237.443298,567.630127 227.651947,579.122742 
M323.740845,687.331604 
	C323.447571,670.260010 325.351929,653.032837 320.811646,635.377930 
	C314.665588,643.762817 314.809387,703.193542 320.571075,711.083313 
	C323.503418,703.558167 322.535309,695.758606 323.740845,687.331604 
M180.030930,637.260010 
	C175.518829,654.301147 176.470261,702.828125 181.640717,710.858154 
	C182.023865,709.574402 182.448532,708.506836 182.657242,707.398560 
	C185.505768,692.272949 185.107620,676.985352 184.817612,661.712769 
	C184.675903,654.250244 184.013565,646.813965 182.815460,639.441345 
	C182.486191,637.415283 182.340927,637.438904 180.030930,637.260010 
z"/>
<path fill="#000000" opacity="1.000000" stroke="none" 
	d="
M489.616425,561.985596 
	C469.627716,564.676880 449.964111,562.720764 430.350433,563.255859 
	C428.406982,563.308899 426.589508,562.883301 426.072449,560.660522 
	C425.546356,558.398865 427.153778,557.263184 428.832489,556.455444 
	C435.435516,553.278015 437.529266,547.437012 437.592804,540.817200 
	C437.773346,522.000305 437.757599,503.179871 437.615845,484.362335 
	C437.569153,478.163727 435.167175,473.028961 429.154724,470.198059 
	C427.096252,469.228851 425.264893,467.935822 426.086792,465.240570 
	C426.820068,462.835968 428.949402,462.688477 430.991302,462.738098 
	C449.279175,463.182373 467.589996,461.727966 485.864319,463.664734 
	C508.479675,466.061646 527.095093,486.308411 527.286499,508.952972 
	C527.339966,515.280151 527.415100,521.589233 525.616760,527.761475 
	C520.306885,545.986145 508.449371,557.348450 489.616425,561.985596 
M496.886444,487.643402 
	C489.275726,475.360931 477.679810,472.082977 464.150360,473.112762 
	C461.525055,473.312592 460.274048,474.543396 460.278564,477.236572 
	C460.317444,500.380981 460.230835,523.526062 460.403015,546.669373 
	C460.434967,550.960449 463.262299,553.636353 467.503723,554.535522 
	C480.225708,557.232666 492.474579,552.148743 498.319702,540.466858 
	C507.020050,523.078674 506.041412,505.489716 496.886444,487.643402 
z"/>
<path fill="#000000" opacity="1.000000" stroke="none" 
	d="
M437.718414,656.982483 
	C437.710846,640.322021 437.643768,624.158081 437.730194,607.994873 
	C437.763489,601.764038 435.581177,597.039734 429.852966,594.118896 
	C427.846039,593.095520 425.200500,592.029541 426.201019,589.014343 
	C427.055054,586.440613 429.615356,586.743896 431.756012,586.739624 
	C443.253784,586.716492 454.751678,586.718384 466.249390,586.755798 
	C468.192780,586.762146 470.590820,586.321045 471.349548,588.809448 
	C472.188843,591.561890 469.895569,592.719543 467.972687,593.607849 
	C462.195160,596.276978 460.230225,600.985107 460.256958,606.972046 
	C460.301300,616.902710 460.269043,626.833679 460.269043,636.658813 
	C462.653015,637.118774 463.219086,635.700806 464.022186,634.745422 
	C470.775726,626.711975 477.297485,618.501404 483.310211,609.887939 
	C488.856079,601.943115 488.677216,599.084900 481.821320,592.276123 
	C480.844543,591.306030 479.912750,590.295593 480.366241,588.810669 
	C480.901611,587.057312 482.441071,586.768005 483.984741,586.763916 
	C494.649078,586.735657 505.313507,586.736633 515.977905,586.749390 
	C517.592712,586.751282 518.913879,587.262329 519.388367,589.047424 
	C519.926270,591.071228 518.848267,592.346802 517.250610,593.059631 
	C502.235931,599.758423 495.416321,614.538391 484.941376,625.707947 
	C483.137054,627.631836 483.431824,629.306274 484.969666,631.418091 
	C494.675537,644.746582 504.239502,658.178467 513.858704,671.570129 
	C516.394226,675.100159 519.139771,678.421936 522.726624,680.984497 
	C524.077148,681.949280 525.469116,683.187927 524.804504,685.125549 
	C524.154541,687.020447 522.373291,687.231384 520.667664,687.236633 
	C514.335938,687.256104 508.003967,687.206360 501.672272,687.230591 
	C499.250793,687.239807 497.677032,686.046631 496.336243,684.132324 
	C488.500610,672.944763 480.631165,661.780579 472.706848,650.655762 
	C471.054077,648.335449 470.073853,644.205872 466.635590,645.012207 
	C463.432312,645.763367 461.143188,649.350525 460.696869,652.545410 
	C459.826385,658.776428 459.629395,665.187866 460.869537,671.424011 
	C461.703064,675.615723 464.833679,678.202820 468.579742,680.075256 
	C470.536743,681.053467 472.665375,682.199951 471.777679,684.948792 
	C471.003693,687.345520 468.755463,687.256348 466.752106,687.260132 
	C454.754517,687.283020 442.756866,687.281189 430.759216,687.265930 
	C428.899170,687.263550 426.953735,687.187561 426.156677,685.069641 
	C425.467224,683.237671 426.201813,681.581909 427.846954,680.839478 
	C436.855103,676.774475 438.478241,669.230469 437.730164,660.477234 
	C437.645355,659.484863 437.719666,658.478882 437.718414,656.982483 
z"/>
<path fill="#000000" opacity="1.000000" stroke="none" 
	d="
M748.719360,539.954895 
	C748.726379,530.634827 748.494568,521.797974 748.831177,512.982727 
	C749.029358,507.791565 747.289307,504.093903 743.194458,501.003571 
	C739.256775,498.031799 739.602173,496.160492 744.342712,494.718628 
	C750.221863,492.930420 756.213989,491.494141 762.197998,490.078094 
	C765.162537,489.376617 767.039001,490.567657 767.259338,493.855133 
	C767.366211,495.448883 766.764099,497.551971 768.665588,498.312469 
	C770.906860,499.208893 771.807983,496.913025 772.996765,495.688202 
	C781.655640,486.766724 798.973267,487.550323 805.689880,497.658051 
	C808.143005,501.349701 809.986084,500.607391 812.581604,497.793518 
	C817.786987,492.150421 824.310547,489.090576 832.100769,489.330841 
	C843.904846,489.694885 852.316223,497.493164 854.294617,509.699097 
	C856.227051,521.621643 855.188354,533.631775 855.204468,545.597717 
	C855.211548,550.863647 856.172119,555.111145 861.038086,557.836609 
	C862.199524,558.487061 863.332764,559.419922 862.853699,561.024292 
	C862.342651,562.735962 860.874390,563.206726 859.306152,563.213074 
	C850.479248,563.248840 841.652161,563.246399 832.825134,563.226135 
	C831.252258,563.222534 829.815552,562.783142 829.186462,561.132324 
	C828.510376,559.358154 829.633667,558.215820 830.877136,557.366211 
	C835.105957,554.476746 835.913818,550.391479 835.774170,545.580383 
	C835.527710,537.092834 835.742188,528.592773 835.677124,520.098572 
	C835.661926,518.119690 835.483948,516.103210 835.063660,514.173035 
	C833.352722,506.315796 829.215454,502.780701 822.581665,503.323944 
	C816.160095,503.849854 810.553223,509.486694 810.380188,516.393738 
	C810.113281,527.046753 810.301025,537.711365 810.323181,548.371094 
	C810.331604,552.440247 812.340759,555.249756 815.873108,557.155212 
	C817.276611,557.912354 819.148499,558.629028 818.387512,560.836548 
	C817.760498,562.655396 816.155029,563.224854 814.384033,563.230652 
	C805.556946,563.259338 796.729675,563.265442 787.902527,563.244507 
	C786.363708,563.240845 784.821838,562.969177 784.211060,561.272217 
	C783.585144,559.533020 784.601990,558.370605 785.949036,557.549194 
	C790.040588,555.054321 790.858154,551.221985 790.811401,546.792847 
	C790.709656,537.133972 790.896301,527.472107 790.811646,517.812866 
	C790.739563,509.586884 787.528259,504.889771 781.872986,504.300507 
	C774.576233,503.540192 769.182678,507.585693 767.962524,516.062866 
	C766.370850,527.120239 767.234558,538.325134 767.575195,549.457214 
	C767.681641,552.935913 770.182861,555.469727 773.217957,557.259521 
	C774.618652,558.085510 776.451965,558.779846 775.857178,560.932617 
	C775.321838,562.870239 773.599609,563.239319 771.863831,563.243835 
	C762.536926,563.268372 753.209839,563.272461 743.882935,563.236816 
	C742.358948,563.231018 740.790527,562.976196 740.298218,561.176514 
	C739.940674,559.869324 740.683533,558.785889 741.715332,558.233765 
	C749.121094,554.271057 749.100220,547.441406 748.719360,539.954895 
z"/>
<path fill="#000000" opacity="1.000000" stroke="none" 
	d="
M736.487610,629.719849 
	C743.364807,644.687927 742.746887,659.175415 735.090698,673.166077 
	C725.994080,689.788879 708.480591,693.639526 689.437683,683.101135 
	C689.268555,690.152466 688.931274,696.865173 689.696167,703.569763 
	C690.117371,707.262085 692.870789,709.182800 695.901550,710.850647 
	C697.606384,711.788818 699.741821,712.889587 698.875061,715.387573 
	C698.129211,717.537292 695.952515,717.266663 694.148315,717.271240 
	C684.322754,717.295959 674.496948,717.297119 664.671387,717.262695 
	C662.868896,717.256409 660.715942,717.459473 660.200378,715.087952 
	C659.743591,712.986694 661.675964,712.259827 663.069763,711.502380 
	C668.216553,708.705566 669.882019,704.410950 669.822693,698.669250 
	C669.610840,678.187195 669.623596,657.700867 669.793762,637.218201 
	C669.834229,632.346619 668.695312,628.596130 664.636780,625.546875 
	C661.012695,622.823975 661.360474,620.578979 665.618286,619.282166 
	C671.801941,617.398804 678.152344,616.033081 684.477173,614.655823 
	C687.473877,614.003235 689.324707,615.251892 689.202209,618.646118 
	C689.161743,619.766296 688.932617,621.001282 690.351562,622.244751 
	C707.662964,610.490112 723.519653,610.450745 736.487610,629.719849 
M694.694031,674.903687 
	C703.781433,680.004272 712.287964,677.822571 716.352234,668.783264 
	C721.215942,657.966064 721.171082,646.793701 716.695557,635.846313 
	C713.980713,629.205505 709.430237,626.596863 703.108948,627.119080 
	C696.876709,627.633911 691.572937,632.058838 690.241211,638.502136 
	C688.339111,647.704529 689.158997,657.038879 689.743530,666.309204 
	C689.943359,669.478760 691.425476,672.393677 694.694031,674.903687 
z"/>
<path fill="#000000" opacity="1.000000" stroke="none" 
	d="
M671.615479,533.721497 
	C679.155518,524.905457 689.633667,522.803528 699.650269,519.891174 
	C709.501892,517.026672 710.770386,514.512817 706.628479,505.036469 
	C704.849792,500.967102 701.753662,498.560608 697.436829,498.458923 
	C693.308472,498.361725 690.130859,500.652283 688.245422,504.315613 
	C686.957642,506.817749 686.272888,509.632721 684.962952,512.120605 
	C681.612732,518.483215 674.943970,520.184998 671.238037,515.483765 
	C667.948425,511.310730 669.078979,506.572784 671.272461,502.300079 
	C675.104187,494.836121 682.153931,491.396851 689.790710,490.089050 
	C696.248352,488.983154 703.053650,488.823730 709.562012,490.877502 
	C720.551514,494.345398 727.115173,503.086029 727.266052,514.734070 
	C727.395325,524.718811 727.349182,534.706787 727.280212,544.692627 
	C727.249084,549.201843 728.511169,552.288208 733.590637,553.242126 
	C737.652527,554.004944 738.317749,556.365845 735.493225,559.131226 
	C729.378357,565.117920 719.170471,568.800659 711.453735,559.712646 
	C709.405273,557.300354 707.663391,557.564758 705.480286,559.019409 
	C702.163757,561.229370 698.927734,563.510620 695.057251,564.803101 
	C685.842041,567.880188 675.066650,565.301758 670.064453,558.619934 
	C665.068665,551.946655 665.574097,542.415955 671.615479,533.721497 
M708.593689,543.721252 
	C708.618286,539.081970 708.647827,534.442627 708.664917,529.803345 
	C708.671448,528.030945 708.446228,526.524475 706.109192,526.356689 
	C700.299011,525.939575 688.667114,534.437439 687.438354,540.093018 
	C686.154114,546.003784 688.077332,550.832397 692.310791,552.326294 
	C698.474365,554.501343 705.964233,550.897400 708.593689,543.721252 
z"/>
<path fill="#000000" opacity="1.000000" stroke="none" 
	d="
M607.932983,559.127808 
	C586.831055,541.628479 592.277100,502.210938 615.652405,492.226990 
	C637.574890,482.863525 660.049927,496.674561 660.294861,521.394592 
	C660.331482,525.089722 658.759033,526.366821 655.195312,526.335999 
	C644.044250,526.239380 632.891296,526.284607 621.739746,526.370911 
	C615.275208,526.420959 614.259094,527.826477 615.980286,533.843933 
	C620.615112,550.047974 637.521484,555.821472 651.873840,546.095215 
	C652.561584,545.629150 653.151611,545.001099 653.873596,544.606812 
	C655.768433,543.572205 657.370056,540.292847 659.727173,542.269897 
	C662.350342,544.470032 660.044739,547.261292 658.827209,549.465820 
	C649.078003,567.119751 624.568298,571.866455 607.932983,559.127808 
M639.445007,507.178467 
	C637.585022,502.146393 635.211731,497.461792 628.937927,497.402985 
	C622.399231,497.341644 619.328979,501.891296 617.186584,507.257965 
	C616.451660,509.098877 615.852478,511.022614 615.453735,512.962402 
	C614.839355,515.951904 615.790161,517.782288 619.270874,517.722168 
	C624.757751,517.627502 630.253357,517.556213 635.734436,517.762329 
	C639.811096,517.915649 641.177795,516.026489 640.642517,512.306702 
	C640.430969,510.836456 639.983826,509.400146 639.445007,507.178467 
z"/>
<path fill="#000000" opacity="1.000000" stroke="none" 
	d="
M783.008118,651.297485 
	C778.848267,651.304260 775.185303,651.377869 771.525513,651.299622 
	C767.846130,651.220947 766.959412,652.750916 767.801392,656.289856 
	C772.241638,674.954834 789.224182,676.726379 800.954529,671.119690 
	C803.629028,669.841370 805.979004,667.892090 808.509155,666.300598 
	C809.898010,665.427002 811.332764,664.253845 812.999512,665.750610 
	C814.586548,667.175903 814.012390,668.896057 813.191895,670.328308 
	C807.149475,680.876343 798.485840,688.060669 786.112305,689.243286 
	C757.451721,691.982605 742.651245,664.503601 749.250061,641.675110 
	C752.912354,629.005310 759.179321,618.784485 773.004883,615.318359 
	C792.650696,610.393127 811.207397,623.396118 813.208557,643.495728 
	C813.882446,650.263672 812.976685,651.263916 805.975281,651.290466 
	C798.485718,651.318970 790.995972,651.297424 783.008118,651.297485 
M790.577271,642.280640 
	C793.765686,641.771729 794.141846,639.528687 793.476868,637.048035 
	C792.703918,634.164612 791.848328,631.238770 790.530396,628.578125 
	C786.487244,620.415894 776.554321,619.972534 771.610474,627.663696 
	C769.612610,630.771851 768.501404,634.266174 767.642822,637.853943 
	C766.882446,641.031006 767.863953,642.680908 771.291077,642.629150 
	C777.452759,642.536194 783.615295,642.498535 790.577271,642.280640 
z"/>
<path fill="#000000" opacity="1.000000" stroke="none" 
	d="
M561.621887,673.627441 
	C570.136658,674.594055 577.044617,671.746704 583.426453,667.079041 
	C584.815125,666.063293 586.337341,664.145386 588.215027,665.682373 
	C590.080261,667.209351 589.333679,669.420654 588.343140,671.185974 
	C582.407593,681.763428 573.415222,688.053406 561.327515,689.249512 
	C540.871155,691.273621 530.027283,677.875000 526.061340,666.002991 
	C520.267761,648.659607 525.592041,628.827393 538.982422,619.698669 
	C549.880737,612.268860 561.680176,612.639893 573.057068,618.655762 
	C584.415955,624.661987 588.363342,635.173401 588.610779,647.391418 
	C588.688965,651.248291 585.700806,651.268494 582.949158,651.274109 
	C571.633728,651.297241 560.318176,651.274597 549.002869,651.314026 
	C543.096985,651.334656 542.555847,652.100037 544.304199,657.733948 
	C546.934082,666.208496 552.352295,671.731506 561.621887,673.627441 
M550.141541,624.495972 
	C546.334717,627.841614 544.789185,632.392273 543.584717,637.072876 
	C542.659729,640.667786 543.642761,642.866516 547.935242,642.672180 
	C551.903687,642.492432 555.886902,642.637329 559.863586,642.639526 
	C570.329590,642.645264 571.507080,640.867188 567.638123,630.898071 
	C564.424927,622.618469 558.400452,620.178650 550.141541,624.495972 
z"/>
<path fill="#000000" opacity="1.000000" stroke="none" 
	d="
M597.248718,665.389038 
	C592.397705,647.923218 597.994751,628.554199 610.407593,619.910828 
	C620.976257,612.551636 632.447815,612.605896 643.587097,617.909912 
	C654.930420,623.310974 659.042847,633.783447 660.246826,645.650879 
	C660.662537,649.748962 658.718628,651.342529 654.706787,651.311096 
	C643.222107,651.220947 631.735962,651.270142 620.250671,651.323242 
	C615.169800,651.346680 614.413940,652.431885 615.809998,657.306396 
	C620.298401,672.977905 636.451294,678.743225 650.946594,669.836731 
	C651.794922,669.315491 652.521973,668.576965 653.402710,668.132324 
	C655.464294,667.091492 657.184143,663.577332 659.729004,665.747314 
	C662.374023,668.002808 659.917603,670.728088 658.544983,672.828064 
	C650.406738,685.278992 638.690796,691.144775 624.066162,689.096985 
	C610.540833,687.203186 601.805359,678.676941 597.248718,665.389038 
M632.287659,622.928589 
	C623.091614,620.895020 613.273682,630.865540 615.302734,640.116455 
	C615.698059,641.918823 616.738586,642.653992 618.426453,642.639404 
	C624.556152,642.586548 630.689209,642.595642 636.812866,642.364380 
	C638.840942,642.287781 641.020569,641.514526 640.549500,638.780823 
	C639.536316,632.900574 638.678894,626.876770 632.287659,622.928589 
z"/>
<path fill="#000000" opacity="1.000000" stroke="none" 
	d="
M832.764038,616.605713 
	C833.812866,616.336365 834.440979,616.105408 835.086914,615.947510 
	C844.878174,613.552734 845.029846,613.652222 846.577576,623.679688 
	C849.089722,623.159058 850.152100,620.906982 851.764771,619.471741 
	C856.090637,615.621765 860.862671,613.242188 866.790405,614.827698 
	C873.416504,616.599854 877.172607,624.894836 874.165283,630.856384 
	C871.172424,636.789246 865.003418,637.815491 860.366150,633.151917 
	C854.427979,627.180115 849.438904,628.376526 846.967896,636.439575 
	C846.488037,638.005310 846.228638,639.700317 846.218140,641.338013 
	C846.154968,651.165771 846.318115,660.996399 846.146484,670.821594 
	C846.062134,675.649841 848.084778,678.778564 852.461670,680.468933 
	C854.424133,681.226868 856.402344,682.012085 856.018860,684.543213 
	C855.571655,687.494995 853.070984,687.268372 850.919312,687.274658 
	C841.256531,687.302856 831.593506,687.294556 821.930603,687.276794 
	C820.091370,687.273438 818.046448,687.368958 817.348328,685.146484 
	C816.639038,682.888123 818.439941,681.793579 819.966309,680.846436 
	C825.206787,677.594727 826.990051,672.901428 826.798523,666.861938 
	C826.518799,658.041016 826.589111,649.200989 826.792419,640.375610 
	C826.938171,634.050232 825.984863,628.425049 820.098694,624.746399 
	C819.152466,624.155029 818.243835,623.286743 818.322449,621.420288 
	C822.202332,618.069397 827.542969,618.084839 832.764038,616.605713 
z"/>
<path fill="#000000" opacity="1.000000" stroke="none" 
	d="
M553.401367,491.236450 
	C554.761597,490.846771 555.742493,490.639404 556.688110,490.325592 
	C560.504944,489.059296 562.486389,490.207581 562.310242,494.435547 
	C562.262634,495.577301 562.248169,496.802887 563.508545,497.716003 
	C566.091614,497.832245 567.364319,495.588654 569.015686,494.126709 
	C573.004333,490.595581 577.547302,489.156555 582.825928,489.743347 
	C586.887085,490.194824 590.031616,492.175171 590.866211,496.110321 
	C591.785706,500.445526 592.537964,505.199829 588.107910,508.467133 
	C584.529297,511.106476 581.163025,511.728851 577.465027,508.102173 
	C571.226440,501.983887 565.716309,503.598877 563.195923,512.013855 
	C562.678101,513.742676 562.335999,515.593506 562.320068,517.391724 
	C562.237671,526.715881 562.255249,536.041504 562.303467,545.366211 
	C562.330444,550.572510 564.080688,554.762329 569.258972,556.986389 
	C570.820312,557.656982 573.144348,558.257568 572.405334,560.722412 
	C571.811096,562.704590 569.905518,563.259766 567.951965,563.262329 
	C558.294128,563.274902 548.636353,563.274048 538.978516,563.262634 
	C537.053345,563.260376 535.151367,562.895386 534.547302,560.785767 
	C533.930725,558.632263 535.863342,557.926086 537.262573,557.167419 
	C541.929382,554.637024 543.557190,550.426758 543.606750,545.510437 
	C543.722534,534.021851 543.703552,522.531494 543.665100,511.042114 
	C543.652039,507.127075 542.053284,503.971954 538.652710,501.826233 
	C537.225891,500.925964 535.776184,499.904907 536.020325,497.936310 
	C536.296936,495.705658 538.200562,495.125153 539.959656,494.652893 
	C544.290100,493.490326 548.654907,492.455811 553.401367,491.236450 
z"/>
<path fill="#000000" opacity="1.000000" stroke="none" 
	d="
M269.103058,340.160492 
	C267.511993,337.073425 269.681915,336.293549 271.541687,335.681458 
	C275.639435,334.332703 279.830933,333.271973 283.952148,331.990723 
	C292.307007,329.393158 297.967194,323.985596 300.811493,315.660889 
	C301.993958,312.199982 303.305634,308.783356 304.512665,305.330597 
	C305.153839,303.496613 306.016724,301.886536 308.242310,301.916626 
	C310.528137,301.947601 311.261719,303.859619 311.853485,305.541748 
	C312.897919,308.510803 313.587921,311.602661 314.575378,314.593903 
	C317.703674,324.070129 323.478058,330.807800 333.672974,333.035461 
	C336.750916,333.707977 339.760010,334.708649 342.780579,335.625214 
	C344.365784,336.106201 346.218964,336.565948 346.281372,338.630798 
	C346.352448,340.982452 344.301605,341.515594 342.582458,342.045471 
	C340.364777,342.728912 338.099182,343.311859 335.814850,343.714630 
	C324.873077,345.643768 318.101868,352.250122 314.568726,362.510071 
	C313.434113,365.804840 312.478668,369.161774 311.320099,372.447540 
	C310.821381,373.861908 310.036652,375.275024 308.279938,375.394379 
	C306.438507,375.519440 305.671112,374.061066 305.088196,372.690979 
	C303.918274,369.941376 302.686310,367.188751 301.859467,364.327728 
	C298.395905,352.343018 290.271210,345.700195 278.285370,343.344055 
	C275.189423,342.735443 272.072571,342.192291 269.103058,340.160492 
z"/>
</svg>